<svg width="199" height="42" viewBox="0 0 199 42" fill="none" xmlns="http://www.w3.org/2000/svg">
<path d="M86.7465 13.6436C82.0707 13.6436 78.6417 17.3896 78.6417 21.9933C78.6417 26.5977 82.1487 30.3436 86.7465 30.3436C89.2405 30.3436 91.3447 29.3292 92.7475 27.7685L96.0206 31.046C93.6828 33.3088 90.4874 34.7135 86.7465 34.7135C79.499 34.7135 73.7319 28.9389 73.7319 21.9933C73.7319 15.0483 79.4209 9.27344 86.7465 9.27344C90.3316 9.27344 93.5266 10.6781 95.8647 12.9412L92.5916 16.2188C91.1888 14.658 89.0846 13.6436 86.7465 13.6436Z" fill="#F8FAFC"/>
<path d="M119.144 34.0462H101.236V9.97559H105.912V29.7974H115.871C116.728 31.4361 117.741 32.7197 119.144 34.0462Z" fill="#F8FAFC"/>
<path d="M130.208 30.3436C134.728 30.3436 138.313 26.5977 138.39 21.9933C138.468 17.3896 134.728 13.6436 130.208 13.6436C125.687 13.6436 122.102 17.3896 122.102 21.9933C122.102 26.5977 125.687 30.3436 130.208 30.3436ZM130.208 9.27344C137.377 9.27344 143.222 15.0483 143.222 21.9933C143.222 28.9389 137.377 34.7135 130.208 34.7135C123.038 34.7135 117.193 28.9389 117.193 21.9933C117.193 15.0483 123.038 9.27344 130.208 9.27344Z" fill="#F8FAFC"/>
<path d="M148.788 23.2422V9.96191H153.464V23.5543C153.464 27.8463 155.568 30.4214 159.387 30.4214C163.205 30.4214 165.31 27.8463 165.31 23.5543V9.96191H169.986V23.2422C169.986 30.6556 166.089 34.7134 159.387 34.7134C152.685 34.7134 148.788 30.6556 148.788 23.2422Z" fill="#F8FAFC"/>
<path d="M193.951 21.9937C193.951 17.3894 190.6 14.1897 185.534 14.1897H181.794V29.7974H185.534C190.6 29.7974 193.951 26.5981 193.951 21.9937ZM198.783 21.9937C198.783 28.9387 193.172 34.0115 185.613 34.0115H177.118V9.97559H185.613C193.172 9.97559 198.783 15.0481 198.783 21.9937Z" fill="#F8FAFC"/>
<path d="M54.6662 19.8877H50.4189V34.046H54.6662V19.8877Z" fill="#F8FAFC"/>
<path d="M65.9082 19.8877H60.8906L55.438 26.9207L60.8906 34.046H65.9082L60.2091 26.9207L65.9082 19.8877Z" fill="#F8FAFC"/>
<path d="M37.2947 10.3623C35.1116 10.3623 33.3708 11.7085 32.5184 14.0559L32.3914 14.4057H34.9949C39.1026 14.4057 41.9716 17.0275 41.9716 20.782C41.9716 24.2438 39.2042 26.9551 35.6712 26.9551C31.1343 26.9551 28.0862 23.3312 28.0862 17.9374C28.0862 10.279 33.8077 4.72055 41.6908 4.72055H41.8638L43.8409 0H43.4494C31.6983 0 23.1688 7.6578 23.1688 18.2084C23.1688 25.9333 28.3131 31.5402 35.4009 31.5402C41.7352 31.5402 46.8887 26.5927 46.8887 20.511C46.8887 14.9149 42.5848 10.3623 37.2947 10.3623Z" fill="#F8FAFC"/>
<path d="M10.7601 19.8598H9.68303V14.473H19.9193L19.9462 14.2428C20.0785 13.1192 20.5469 11.5827 21.1402 10.3282L21.3166 9.95605L5.00715 9.95698V24.5849L10.6248 24.5803C14.7976 24.5803 17.6011 27.1154 17.6011 30.8886C17.6011 34.3504 14.8932 37.062 11.4364 37.062C8.00776 37.062 5.32922 34.6849 5.06746 31.4098L5.04848 31.1697H0L0.0168385 31.4463C0.367385 37.2045 5.32402 41.7148 11.3011 41.7148C17.486 41.7148 22.5182 36.7974 22.5182 30.7534C22.5182 24.6447 17.3534 19.8598 10.7601 19.8598Z" fill="#F8FAFC"/>
</svg>
